<svg width="13" height="13" viewBox="0 0 13 13" fill="none" xmlns="http://www.w3.org/2000/svg">
    <path
        d="M6.34566 4.21805C5.88816 4.21805 5.44095 4.35371 5.06055 4.60788C4.68016 4.86205 4.38368 5.22331 4.20861 5.64598C4.03353 6.06865 3.98773 6.53374 4.07698 6.98244C4.16623 7.43114 4.38654 7.8433 4.71003 8.1668C5.03353 8.4903 5.44569 8.7106 5.89439 8.79985C6.34309 8.8891 6.80818 8.8433 7.23085 8.66822C7.65352 8.49315 8.01478 8.19667 8.26895 7.81628C8.52312 7.43588 8.65878 6.98867 8.65878 6.53117C8.65809 5.91791 8.41416 5.32996 7.98052 4.89631C7.54687 4.46267 6.95892 4.21874 6.34566 4.21805ZM6.34566 8.00316C6.05453 8.00316 5.76993 7.91683 5.52786 7.75509C5.2858 7.59334 5.09713 7.36345 4.98572 7.09448C4.87431 6.82551 4.84516 6.52954 4.90195 6.244C4.95875 5.95846 5.09894 5.69618 5.3048 5.49032C5.51067 5.28446 5.77295 5.14427 6.05849 5.08747C6.34402 5.03067 6.63999 5.05982 6.90896 5.17123C7.17793 5.28264 7.40783 5.47131 7.56957 5.71338C7.73132 5.95545 7.81765 6.24004 7.81765 6.53117C7.81721 6.92143 7.66198 7.29559 7.38603 7.57154C7.11007 7.8475 6.73592 8.00272 6.34566 8.00316Z"
        fill="black" />
    <path
        d="M12.1166 8.27441L11.2815 7.58696C11.4295 6.89089 11.4295 6.17147 11.2815 5.4754L12.1166 4.78795C12.2129 4.70904 12.278 4.59841 12.3001 4.47589C12.3223 4.35337 12.3002 4.22695 12.2376 4.11927L11.3804 2.63459C11.3184 2.52656 11.22 2.44414 11.1028 2.40209C10.9856 2.36004 10.8572 2.36111 10.7407 2.40512L9.72711 2.78486C9.19909 2.3078 8.57617 1.94777 7.89922 1.7284L7.72137 0.661968C7.70123 0.539066 7.63799 0.427352 7.54296 0.346849C7.44794 0.266347 7.32735 0.222319 7.20281 0.222658H5.48841C5.36388 0.222324 5.2433 0.266349 5.14827 0.346845C5.05325 0.427342 4.99 0.539046 4.96985 0.661942L4.79211 1.7284C4.11515 1.94777 3.49223 2.3078 2.96422 2.78486L1.95052 2.40507C1.83402 2.36109 1.70567 2.36003 1.58846 2.40209C1.47125 2.44414 1.37285 2.52655 1.31088 2.63456L0.453688 4.11935C0.39117 4.22704 0.369031 4.35346 0.391235 4.47598C0.413438 4.5985 0.478534 4.70911 0.574864 4.788L1.40988 5.4754C1.26184 6.17147 1.26184 6.89089 1.40988 7.58696L0.574785 8.27441C0.47847 8.35332 0.413392 8.46394 0.391204 8.58647C0.369015 8.70899 0.391165 8.83541 0.453688 8.94309L1.31091 10.4278C1.37288 10.5358 1.4713 10.6182 1.58852 10.6603C1.70575 10.7023 1.83412 10.7012 1.95062 10.6572L2.96424 10.2775C3.49226 10.7546 4.11518 11.1146 4.79214 11.334L4.96988 12.4004C4.99002 12.5233 5.05326 12.635 5.14828 12.7155C5.2433 12.796 5.36388 12.84 5.48841 12.8397H7.20281C7.32734 12.84 7.44793 12.796 7.54295 12.7155C7.63798 12.635 7.70123 12.5233 7.72137 12.4004L7.89914 11.334C8.57609 11.1146 9.19901 10.7546 9.72703 10.2775L10.7407 10.6573C10.8572 10.7013 10.9856 10.7023 11.1028 10.6603C11.22 10.6182 11.3184 10.5358 11.3803 10.4278L12.2375 8.94301C12.3 8.83536 12.3222 8.70897 12.3 8.58646C12.2779 8.46395 12.2128 8.35333 12.1166 8.27441ZM10.7856 9.77584L9.521 9.30207L9.32951 9.49484C8.80266 10.0259 8.14367 10.4067 7.42053 10.5981L7.15767 10.6674L6.93569 11.9986H5.75574L5.53383 10.6674L5.27098 10.5981C4.54784 10.4067 3.88885 10.0259 3.36199 9.49484L3.1705 9.30207L1.90573 9.77584L1.31585 8.75394L2.35752 7.8964L2.28655 7.63425C2.09137 6.91182 2.09137 6.15054 2.28655 5.42811L2.35752 5.16599L1.31585 4.30845L1.90586 3.28652L3.17043 3.76029L3.36192 3.56752C3.88877 3.03648 4.54776 2.65563 5.2709 2.46423L5.53376 2.39495L5.75563 1.06379H6.93569L7.1576 2.39495L7.42045 2.46423C8.14359 2.65563 8.80258 3.03648 9.32944 3.56752L9.52093 3.76029L10.7855 3.28652L11.3755 4.30843L10.3339 5.16599L10.4048 5.42811C10.6 6.15054 10.6 6.91182 10.4048 7.63425L10.3339 7.8964L11.3755 8.75391L10.7856 9.77584Z"
        fill="black" />
</svg>
    